<?xml version="1.0" encoding="UTF-8" standalone="no"?>
<!DOCTYPE svg PUBLIC "-//W3C//DTD SVG 1.1//EN" "http://www.w3.org/Graphics/SVG/1.1/DTD/svg11.dtd">
<svg version="1.1" xmlns="http://www.w3.org/2000/svg" xmlns:xlink="http://www.w3.org/1999/xlink" preserveAspectRatio="xMidYMid meet" viewBox="0 0 192 128" width="192" height="128"><defs><path d="M161.31 0.05L161.95 0.12L162.59 0.21L163.21 0.33L163.83 0.47L164.44 0.63L165.04 0.82L165.63 1.03L166.21 1.26L166.78 1.52L167.34 1.79L167.88 2.09L168.41 2.41L168.93 2.74L169.43 3.1L169.92 3.47L170.4 3.86L170.86 4.27L171.3 4.7L171.73 5.14L172.14 5.6L172.53 6.08L172.9 6.57L173.26 7.07L173.59 7.59L173.91 8.12L174.21 8.66L174.48 9.22L174.74 9.79L174.97 10.37L175.18 10.96L175.37 11.56L175.53 12.17L175.67 12.79L175.79 13.41L175.88 14.05L175.95 14.69L175.99 15.34L176 16L175.92 96L175.91 96.44L175.88 96.88L175.83 97.31L175.76 97.74L175.67 98.18L175.56 98.6L175.43 99.03L175.28 99.46L175.11 99.88L174.93 100.3L174.72 100.72L174.49 101.14L174.24 101.55L173.97 101.96L173.68 102.38L173.37 102.78L173.04 103.19L172.7 103.6L172.33 104L171.94 104.4L171.53 104.8L171.1 105.2L170.66 105.59L170.19 105.98L169.7 106.38L169.19 106.76L168.67 107.15L168.12 107.54L167.55 107.92L166.96 108.3L166.36 108.68L165.73 109.06L165.08 109.43L164.42 109.8L163.73 110.18L163.02 110.54L162.3 110.91L161.55 111.28L160.79 111.64L160 112L184 112L184.33 112.01L184.65 112.03L184.98 112.06L185.29 112.11L185.61 112.16L185.92 112.23L186.22 112.32L186.52 112.41L186.82 112.51L187.11 112.63L187.39 112.76L187.67 112.9L187.94 113.04L188.21 113.2L188.46 113.37L188.72 113.55L188.96 113.74L189.2 113.93L189.43 114.14L189.65 114.35L189.86 114.57L190.07 114.8L190.26 115.04L190.45 115.28L190.63 115.54L190.8 115.79L190.96 116.06L191.1 116.33L191.24 116.61L191.37 116.89L191.49 117.18L191.59 117.48L191.68 117.78L191.77 118.08L191.84 118.39L191.89 118.71L191.94 119.02L191.97 119.35L191.99 119.67L192 120L191.99 120.33L191.97 120.65L191.94 120.98L191.89 121.29L191.84 121.61L191.77 121.92L191.68 122.22L191.59 122.52L191.49 122.82L191.37 123.11L191.24 123.39L191.1 123.67L190.96 123.94L190.8 124.21L190.63 124.46L190.45 124.72L190.26 124.96L190.07 125.2L189.86 125.43L189.65 125.65L189.43 125.86L189.2 126.07L188.96 126.26L188.72 126.45L188.46 126.63L188.21 126.8L187.94 126.96L187.67 127.1L187.39 127.24L187.11 127.37L186.82 127.49L186.52 127.59L186.22 127.68L185.92 127.77L185.61 127.84L185.29 127.89L184.98 127.94L184.65 127.97L184.33 127.99L184 128L8 128L7.67 127.99L7.35 127.97L7.02 127.94L6.71 127.89L6.39 127.84L6.08 127.77L5.78 127.68L5.48 127.59L5.18 127.49L4.89 127.37L4.61 127.24L4.33 127.1L4.06 126.96L3.79 126.8L3.54 126.63L3.28 126.45L3.04 126.26L2.8 126.07L2.57 125.86L2.35 125.65L2.14 125.43L1.93 125.2L1.74 124.96L1.55 124.72L1.37 124.46L1.2 124.21L1.04 123.94L0.9 123.67L0.76 123.39L0.63 123.11L0.51 122.82L0.41 122.52L0.32 122.22L0.23 121.92L0.16 121.61L0.11 121.29L0.06 120.98L0.03 120.65L0.01 120.33L0 120L0.01 119.67L0.03 119.35L0.06 119.02L0.11 118.71L0.16 118.39L0.23 118.08L0.32 117.78L0.41 117.48L0.51 117.18L0.63 116.89L0.76 116.61L0.9 116.33L1.04 116.06L1.2 115.79L1.37 115.54L1.55 115.28L1.74 115.04L1.93 114.8L2.14 114.57L2.35 114.35L2.57 114.14L2.8 113.93L3.04 113.74L3.28 113.55L3.54 113.37L3.79 113.2L4.06 113.04L4.33 112.9L4.61 112.76L4.89 112.63L5.18 112.51L5.48 112.41L5.78 112.32L6.08 112.23L6.39 112.16L6.71 112.11L7.02 112.06L7.35 112.03L7.67 112.01L8 112L32 112L31.34 111.99L30.69 111.95L30.05 111.88L29.41 111.79L28.79 111.67L28.17 111.53L27.56 111.37L26.96 111.18L26.37 110.97L25.79 110.74L25.22 110.48L24.66 110.21L24.12 109.91L23.59 109.59L23.07 109.26L22.57 108.9L22.08 108.53L21.6 108.14L21.14 107.73L20.7 107.3L20.27 106.86L19.86 106.4L19.47 105.92L19.1 105.43L18.74 104.93L18.41 104.41L18.09 103.88L17.79 103.34L17.52 102.78L17.26 102.21L17.03 101.63L16.82 101.04L16.63 100.44L16.47 99.83L16.33 99.21L16.21 98.59L16.12 97.95L16.05 97.31L16.01 96.66L16 96L16 16L16.01 15.34L16.05 14.69L16.12 14.05L16.21 13.41L16.33 12.79L16.47 12.17L16.63 11.56L16.82 10.96L17.03 10.37L17.26 9.79L17.52 9.22L17.79 8.66L18.09 8.12L18.41 7.59L18.74 7.07L19.1 6.57L19.47 6.08L19.86 5.6L20.27 5.14L20.7 4.7L21.14 4.27L21.6 3.86L22.08 3.47L22.57 3.1L23.07 2.74L23.59 2.41L24.12 2.09L24.66 1.79L25.22 1.52L25.79 1.26L26.37 1.03L26.96 0.82L27.56 0.63L28.17 0.47L28.79 0.33L29.41 0.21L30.05 0.12L30.69 0.05L31.34 0.01L32 0L160 0L160.66 0.01L161.31 0.05ZM39.67 16.01L39.35 16.03L39.02 16.06L38.71 16.11L38.39 16.16L38.08 16.23L37.78 16.32L37.48 16.41L37.18 16.51L36.89 16.63L36.61 16.76L36.33 16.9L36.06 17.04L35.79 17.2L35.54 17.37L35.28 17.55L35.04 17.74L34.8 17.93L34.57 18.14L34.35 18.35L34.14 18.57L33.93 18.8L33.74 19.04L33.55 19.28L33.37 19.54L33.2 19.79L33.04 20.06L32.9 20.33L32.76 20.61L32.63 20.89L32.51 21.18L32.41 21.48L32.32 21.78L32.23 22.08L32.16 22.39L32.11 22.71L32.06 23.02L32.03 23.35L32.01 23.67L32 24L32 88L32.01 88.33L32.03 88.65L32.06 88.98L32.11 89.29L32.16 89.61L32.23 89.92L32.32 90.22L32.41 90.52L32.51 90.82L32.63 91.11L32.76 91.39L32.9 91.67L33.04 91.94L33.2 92.21L33.37 92.46L33.55 92.72L33.74 92.96L33.93 93.2L34.14 93.43L34.35 93.65L34.57 93.86L34.8 94.07L35.04 94.26L35.28 94.45L35.54 94.63L35.79 94.8L36.06 94.96L36.33 95.1L36.61 95.24L36.89 95.37L37.18 95.49L37.48 95.59L37.78 95.68L38.08 95.77L38.39 95.84L38.71 95.89L39.02 95.94L39.35 95.97L39.67 95.99L40 96L152 96L152.33 95.99L152.65 95.97L152.98 95.94L153.29 95.89L153.61 95.84L153.92 95.77L154.22 95.68L154.52 95.59L154.82 95.49L155.11 95.37L155.39 95.24L155.67 95.1L155.94 94.96L156.21 94.8L156.46 94.63L156.72 94.45L156.96 94.26L157.2 94.07L157.43 93.86L157.65 93.65L157.86 93.43L158.07 93.2L158.26 92.96L158.45 92.72L158.63 92.46L158.8 92.21L158.96 91.94L159.1 91.67L159.24 91.39L159.37 91.11L159.49 90.82L159.59 90.52L159.68 90.22L159.77 89.92L159.84 89.61L159.89 89.29L159.94 88.98L159.97 88.65L159.99 88.33L160 88L160 24L159.99 23.67L159.97 23.35L159.94 23.02L159.89 22.71L159.84 22.39L159.77 22.08L159.68 21.78L159.59 21.48L159.49 21.18L159.37 20.89L159.24 20.61L159.1 20.33L158.96 20.06L158.8 19.79L158.63 19.54L158.45 19.28L158.26 19.04L158.07 18.8L157.86 18.57L157.65 18.35L157.43 18.14L157.2 17.93L156.96 17.74L156.72 17.55L156.46 17.37L156.21 17.2L155.94 17.04L155.67 16.9L155.39 16.76L155.11 16.63L154.82 16.51L154.52 16.41L154.22 16.32L153.92 16.23L153.61 16.16L153.29 16.11L152.98 16.06L152.65 16.03L152.33 16.01L152 16L40 16L39.67 16.01Z" id="b1MJVHy6j"></path></defs><g><g><g><use xlink:href="#b1MJVHy6j" opacity="1" fill="#ffffff" fill-opacity="1"></use><g><use xlink:href="#b1MJVHy6j" opacity="1" fill-opacity="0" stroke="#000000" stroke-width="1" stroke-opacity="0"></use></g></g></g></g></svg>